<svg width="18" height="18" viewBox="0 0 18 18" fill="none" xmlns="http://www.w3.org/2000/svg">
<path d="M5.53376 7.64282L3.85867 9.31791C3.23307 9.94351 2.87331 10.7947 2.87988 11.6893C2.88646 12.584 3.23835 13.4404 3.89363 14.0754C4.52864 14.7307 5.38524 15.0826 6.27971 15.0892C7.19457 15.0959 8.02565 14.7564 8.65129 14.1308L10.3264 12.4557M12.466 10.357L14.1411 8.68191C14.7667 8.05631 15.1264 7.20509 15.1199 6.31048C15.1133 5.41587 14.7614 4.55946 14.1061 3.92441C13.4713 3.28954 12.6148 2.93764 11.7202 2.93106C10.8256 2.92449 9.97425 3.26383 9.34861 3.88944L7.67352 5.56453M6.45971 11.4953L11.485 6.47001" stroke="url(#paint0_linear_716_5973)" stroke-width="1.5" stroke-linecap="round" stroke-linejoin="round"/>
<defs>
<linearGradient id="paint0_linear_716_5973" x1="11.6376" y1="11.6376" x2="6.36224" y2="6.36217" gradientUnits="userSpaceOnUse">
<stop stop-color="#FF9999"/>
<stop offset="1" stop-color="#FF6666"/>
</linearGradient>
</defs>
</svg>
