<svg width="27" height="27" viewBox="0 0 27 27" fill="none" xmlns="http://www.w3.org/2000/svg">
<path d="M21.3751 13.5001L24.5139 13.5001C25.0201 13.5001 25.2676 14.1076 24.9076 14.4563L20.6439 18.7313C20.4189 18.9563 20.0701 18.9563 19.8451 18.7313L15.5814 14.4676C15.2326 14.1076 15.4801 13.5001 15.9864 13.5001L19.1251 13.5001C19.1251 9.30384 15.2776 5.98509 10.9239 6.90759C8.37015 7.43634 6.3114 9.50634 5.78265 12.0488C4.9389 16.0651 7.69515 19.6426 11.4189 20.1826C11.9589 20.2613 12.3751 20.7338 12.3751 21.2851C12.3751 21.9601 11.7789 22.5001 11.1039 22.4101C6.16515 21.7126 2.5089 17.0101 3.5439 11.6888C4.23015 8.17884 7.0539 5.35509 10.5639 4.66884C16.3351 3.55509 21.3751 7.94259 21.3751 13.5001Z" fill="#A6A6A6"/>
</svg>
