<svg width="18" height="18" viewBox="0 0 18 18" fill="none" xmlns="http://www.w3.org/2000/svg">
<path d="M6.8398 6.8398V6.0898C6.42559 6.0898 6.0898 6.42559 6.0898 6.8398H6.8398ZM6.91152 6.8398H7.66152C7.66152 6.42559 7.32574 6.0898 6.91152 6.0898V6.8398ZM11.1598 6.8398V6.0898C10.7456 6.0898 10.4098 6.42559 10.4098 6.8398H11.1598ZM11.2236 6.8398H11.9736C11.9736 6.42559 11.6378 6.0898 11.2236 6.0898V6.8398ZM6.91152 6.89746V7.64746C7.32574 7.64746 7.66152 7.31167 7.66152 6.89746H6.91152ZM6.8398 6.89746H6.0898C6.0898 7.31167 6.42559 7.64746 6.8398 7.64746V6.89746ZM11.2236 6.89746V7.64746C11.6378 7.64746 11.9736 7.31167 11.9736 6.89746H11.2236ZM11.1598 6.89746H10.4098C10.4098 7.31167 10.7456 7.64746 11.1598 7.64746V6.89746ZM7.14148 10.7944C6.92347 10.4422 6.46122 10.3334 6.10902 10.5515C5.75682 10.7695 5.64804 11.2317 5.86606 11.5839L7.14148 10.7944ZM12.1336 11.5839C12.3516 11.2317 12.2428 10.7695 11.8906 10.5515C11.5384 10.3334 11.0761 10.4422 10.8581 10.7944L12.1336 11.5839ZM15.4498 8.9998C15.4498 12.562 12.562 15.4498 8.9998 15.4498V16.9498C13.3905 16.9498 16.9498 13.3905 16.9498 8.9998H15.4498ZM8.9998 15.4498C5.43757 15.4498 2.5498 12.562 2.5498 8.9998H1.0498C1.0498 13.3905 4.60914 16.9498 8.9998 16.9498V15.4498ZM2.5498 8.9998C2.5498 5.43757 5.43757 2.5498 8.9998 2.5498V1.0498C4.60914 1.0498 1.0498 4.60914 1.0498 8.9998H2.5498ZM8.9998 2.5498C12.562 2.5498 15.4498 5.43757 15.4498 8.9998H16.9498C16.9498 4.60914 13.3905 1.0498 8.9998 1.0498V2.5498ZM6.8398 7.5898H6.91152V6.0898H6.8398V7.5898ZM11.1598 7.5898H11.2236V6.0898H11.1598V7.5898ZM6.16152 6.8398V6.89746H7.66152V6.8398H6.16152ZM6.91152 6.14746H6.8398V7.64746H6.91152V6.14746ZM7.5898 6.89746V6.8398H6.0898V6.89746H7.5898ZM10.4736 6.8398V6.89746H11.9736V6.8398H10.4736ZM11.2236 6.14746H11.1598V7.64746H11.2236V6.14746ZM11.9098 6.89746V6.8398H10.4098V6.89746H11.9098ZM8.9998 11.8498C8.22747 11.8498 7.53907 11.4367 7.14148 10.7944L5.86606 11.5839C6.51837 12.6377 7.67341 13.3498 8.9998 13.3498V11.8498ZM10.8581 10.7944C10.4605 11.4367 9.77214 11.8498 8.9998 11.8498V13.3498C10.3262 13.3498 11.4812 12.6377 12.1336 11.5839L10.8581 10.7944Z" fill="url(#paint0_linear_716_5980)"/>
<defs>
<linearGradient id="paint0_linear_716_5980" x1="8.99988" y1="1.12479" x2="8.99988" y2="16.8748" gradientUnits="userSpaceOnUse">
<stop stop-color="#FF9999"/>
<stop offset="1" stop-color="#FF6666"/>
</linearGradient>
</defs>
</svg>
