<svg width="96" height="24" viewBox="0 0 96 24" fill="none" xmlns="http://www.w3.org/2000/svg">
<rect width="24" height="24" rx="4" fill="#FF6666"/>
<g filter="url(#filter0_i_785_3236)">
<rect x="4.45441" y="10.6326" width="10.6682" height="10.6682" rx="0.950495" transform="rotate(-45 4.45441 10.6326)" fill="#F5F5F5"/>
</g>
<g filter="url(#filter1_i_785_3236)">
<rect x="6.29706" y="6.05939" width="11.4059" height="12.7129" rx="1.42574" fill="url(#paint0_linear_785_3236)"/>
</g>
<path d="M12.988 14.5385C12.8539 14.6332 12.8539 14.8321 12.988 14.9268L18.7541 18.9957C18.9115 19.1067 19.1287 18.9942 19.1287 18.8015L19.1287 10.6638C19.1287 10.4712 18.9115 10.3586 18.7541 10.4697L12.988 14.5385Z" fill="white"/>
<path d="M11.012 14.5385C11.1461 14.6332 11.1461 14.8321 11.012 14.9268L5.2459 18.9957C5.08849 19.1067 4.87127 18.9942 4.87127 18.8015L4.87127 10.6638C4.87127 10.4712 5.08849 10.3586 5.2459 10.4697L11.012 14.5385Z" fill="white"/>
<g filter="url(#filter2_d_785_3236)">
<path d="M12.6942 11.4352C12.3186 11.0336 11.6815 11.0336 11.3058 11.4352L5.16187 18.0042C4.59383 18.6115 5.02448 19.6039 5.85605 19.6039L18.144 19.6039C18.9756 19.6039 19.4062 18.6115 18.8382 18.0042L12.6942 11.4352Z" fill="white"/>
</g>
<g filter="url(#filter3_i_785_3236)">
<path d="M33.28 16.28C34.4933 16.3867 35.74 16.4667 37.02 16.52C38.3133 16.5733 39.6133 16.6 40.92 16.6C42.6133 16.6 44.24 16.56 45.8 16.48C46.04 16.4667 46.22 16.5733 46.34 16.8C46.46 17.0133 46.52 17.2533 46.52 17.52C46.52 17.7867 46.4533 18.0467 46.32 18.3C46.2 18.54 46.0067 18.6867 45.74 18.74C45.1533 18.8467 44.5133 18.94 43.82 19.02C43.1267 19.1 42.4067 19.1667 41.66 19.22C40.9267 19.2733 40.1733 19.3133 39.4 19.34C38.64 19.3667 37.9 19.38 37.18 19.38C36.4467 19.38 35.7533 19.3667 35.1 19.34C34.4467 19.3133 33.8533 19.2733 33.32 19.22C33.0667 19.1933 32.88 19.02 32.76 18.7C32.6533 18.38 32.6 18.0333 32.6 17.66C32.6 17.2867 32.6533 16.96 32.76 16.68C32.88 16.3867 33.0533 16.2533 33.28 16.28ZM36.74 10.8C36.7667 11.0667 36.8867 11.26 37.1 11.38C37.3133 11.5 37.5333 11.5667 37.76 11.58C38.44 11.62 39.0933 11.64 39.72 11.64C40.56 11.64 41.38 11.6067 42.18 11.54C42.98 11.4733 43.8533 11.38 44.8 11.26C44.9067 11.2467 45 11.28 45.08 11.36C45.1733 11.4267 45.2467 11.52 45.3 11.64C45.3667 11.76 45.4133 11.9 45.44 12.06C45.48 12.2067 45.5 12.36 45.5 12.52C45.5 12.7333 45.46 12.9267 45.38 13.1C45.3133 13.26 45.2 13.36 45.04 13.4C43.8533 13.6667 42.74 13.8667 41.7 14C40.66 14.1333 39.62 14.2 38.58 14.2C38.0067 14.2 37.4267 14.18 36.84 14.14C36.2667 14.1 35.6733 14.0333 35.06 13.94C34.6333 13.8733 34.3 13.7267 34.06 13.5C33.82 13.2733 33.68 12.92 33.64 12.44C33.6133 12.0667 33.5933 11.7 33.58 11.34C33.5667 10.98 33.56 10.6267 33.56 10.28C33.56 9.48 33.5933 8.69333 33.66 7.92C33.7267 7.14667 33.82 6.34667 33.94 5.52C33.9933 5.12 34.1467 4.80667 34.4 4.58C34.6667 4.34 34.9733 4.21333 35.32 4.2C36.04 4.17333 36.74 4.15333 37.42 4.14C38.1 4.11333 38.78 4.1 39.46 4.1C40.3 4.1 41.1267 4.12 41.94 4.16C42.7533 4.18667 43.6 4.24 44.48 4.32C44.72 4.34667 44.9 4.48 45.02 4.72C45.14 4.96 45.2 5.22 45.2 5.5C45.2 5.80667 45.1333 6.08667 45 6.34C44.88 6.59333 44.6933 6.71333 44.44 6.7C44.0267 6.68667 43.6267 6.68 43.24 6.68C42.8533 6.66667 42.4667 6.66 42.08 6.66C41.28 6.66 40.5 6.68 39.74 6.72C38.9933 6.74667 38.22 6.80667 37.42 6.9C37.22 6.92667 37.0733 6.99333 36.98 7.1C36.8867 7.19333 36.8267 7.36 36.8 7.6C36.7733 7.92 36.7467 8.25333 36.72 8.6C36.7067 8.94667 36.7 9.29333 36.7 9.64C36.7 9.84 36.7 10.04 36.7 10.24C36.7133 10.4267 36.7267 10.6133 36.74 10.8ZM59.42 13.42C59.4733 12.86 59.5133 12.2667 59.54 11.64C59.5667 11 59.58 10.3333 59.58 9.64C59.58 8.8 59.56 7.94667 59.52 7.08C59.4933 6.21333 59.46 5.36 59.42 4.52C59.4067 4.38667 59.44 4.26667 59.52 4.16C59.6 4.05333 59.7 3.96667 59.82 3.9C59.9533 3.82 60.1067 3.76 60.28 3.72C60.4533 3.68 60.6267 3.66 60.8 3.66C61.0933 3.66 61.36 3.72 61.6 3.84C61.8533 3.96 62.0067 4.15333 62.06 4.42C62.26 5.52667 62.4067 6.7 62.5 7.94C62.5933 9.16667 62.64 10.3467 62.64 11.48C62.64 12.24 62.62 12.94 62.58 13.58C62.5667 13.8333 62.4 14.0267 62.08 14.16C61.76 14.28 61.4067 14.34 61.02 14.34C60.5933 14.34 60.2133 14.2667 59.88 14.12C59.5467 13.96 59.3933 13.7267 59.42 13.42ZM52.46 20.32C52.4333 19.64 52.4467 18.9333 52.5 18.2C52.5667 17.4667 52.6667 16.7067 52.8 15.92C52.8533 15.6 52.9933 15.3733 53.22 15.24C53.4467 15.0933 53.7133 15.0067 54.02 14.98C54.4333 14.94 54.88 14.9133 55.36 14.9C55.8533 14.8733 56.36 14.86 56.88 14.86C57.48 14.86 58.0733 14.88 58.66 14.92C59.26 14.9467 59.8133 14.9933 60.32 15.06C60.76 15.1133 61.0667 15.2467 61.24 15.46C61.4133 15.66 61.5333 15.9333 61.6 16.28C61.6667 16.76 61.7133 17.24 61.74 17.72C61.78 18.2 61.8 18.6733 61.8 19.14C61.8 19.3267 61.8 19.5067 61.8 19.68C61.8 19.8533 61.7933 20.0333 61.78 20.22C61.7533 20.54 61.5933 20.82 61.3 21.06C61.02 21.3 60.6533 21.5 60.2 21.66C59.76 21.82 59.2533 21.9333 58.68 22C58.12 22.08 57.5533 22.12 56.98 22.12C56.4067 22.12 55.8467 22.0867 55.3 22.02C54.7667 21.9533 54.2867 21.8467 53.86 21.7C53.4467 21.5533 53.1133 21.3667 52.86 21.14C52.6067 20.9133 52.4733 20.64 52.46 20.32ZM59.1 19.12C59.1 19.04 59.1 18.9267 59.1 18.78C59.1 18.6333 59.0933 18.48 59.08 18.32C59.0667 18.1467 59.0533 17.9867 59.04 17.84C59.0267 17.68 59.0067 17.5533 58.98 17.46C58.9533 17.2867 58.8733 17.1733 58.74 17.12C58.6067 17.0667 58.4533 17.0333 58.28 17.02C58.1467 17.0067 58.0067 17 57.86 17C57.7133 17 57.56 17 57.4 17C57.1467 17 56.8933 17.0067 56.64 17.02C56.3867 17.02 56.1533 17.0267 55.94 17.04C55.7267 17.0667 55.5933 17.12 55.54 17.2C55.4867 17.2667 55.4533 17.36 55.44 17.48C55.4267 17.5733 55.4133 17.7 55.4 17.86C55.3867 18.0067 55.3733 18.1667 55.36 18.34C55.3467 18.5 55.3333 18.66 55.32 18.82C55.32 18.9667 55.32 19.08 55.32 19.16C55.32 19.28 55.3733 19.3867 55.48 19.48C55.5867 19.5733 55.7267 19.6467 55.9 19.7C56.0867 19.7667 56.2933 19.8133 56.52 19.84C56.7467 19.88 56.9733 19.9 57.2 19.9C57.4267 19.9 57.6533 19.88 57.88 19.84C58.1067 19.8133 58.3067 19.7667 58.48 19.7C58.6667 19.6467 58.8133 19.5667 58.92 19.46C59.04 19.3667 59.1 19.2533 59.1 19.12ZM57.5 8.56C57.5 8.85333 57.42 9.11333 57.26 9.34C57.1 9.55333 56.7867 9.66 56.32 9.66C56.0267 9.66 55.6867 9.66667 55.3 9.68C54.9267 9.68 54.54 9.68667 54.14 9.7C53.7533 9.7 53.3733 9.70667 53 9.72C52.6267 9.72 52.3 9.72667 52.02 9.74C51.6067 9.76667 51.4 9.96667 51.4 10.34C51.4 10.4467 51.4 10.5467 51.4 10.64C51.4 10.72 51.4133 10.8333 51.44 10.98C51.4667 11.18 51.58 11.3067 51.78 11.36C51.98 11.4133 52.1933 11.4467 52.42 11.46C52.62 11.46 52.82 11.4667 53.02 11.48C53.22 11.48 53.4267 11.48 53.64 11.48C54.2933 11.48 54.9467 11.4667 55.6 11.44C56.2533 11.4133 56.8933 11.3733 57.52 11.32C57.72 11.3067 57.88 11.4133 58 11.64C58.1333 11.8533 58.2 12.08 58.2 12.32C58.2 12.4933 58.1667 12.6467 58.1 12.78C58.0333 12.9133 57.92 13 57.76 13.04C56.9733 13.2267 56.1333 13.38 55.24 13.5C54.36 13.62 53.46 13.68 52.54 13.68C52.0333 13.68 51.5267 13.66 51.02 13.62C50.5133 13.58 50.0067 13.5133 49.5 13.42C49.1533 13.3533 48.88 13.2067 48.68 12.98C48.4933 12.7533 48.3867 12.4933 48.36 12.2C48.32 11.6267 48.3 11.0667 48.3 10.52C48.3 9.98667 48.32 9.4 48.36 8.76C48.3867 8.45333 48.5133 8.21333 48.74 8.04C48.98 7.86667 49.3 7.76667 49.7 7.74C49.9933 7.72667 50.3267 7.72 50.7 7.72C51.0867 7.70667 51.4733 7.7 51.86 7.7C52.2467 7.7 52.6267 7.7 53 7.7C53.3867 7.7 53.7267 7.7 54.02 7.7C54.2067 7.7 54.3467 7.66667 54.44 7.6C54.5333 7.53333 54.5733 7.40667 54.56 7.22C54.5467 7.08667 54.54 6.95333 54.54 6.82C54.54 6.67333 54.5267 6.54667 54.5 6.44C54.4733 6.29333 54.4067 6.2 54.3 6.16C54.1933 6.12 54.0467 6.09333 53.86 6.08C53.54 6.06667 53.1733 6.06 52.76 6.06C52.3467 6.06 51.92 6.06 51.48 6.06C51.04 6.06 50.6067 6.06 50.18 6.06C49.7533 6.06 49.3667 6.06667 49.02 6.08C48.8067 6.09333 48.64 5.98667 48.52 5.76C48.4133 5.52 48.36 5.26 48.36 4.98C48.36 4.72667 48.4067 4.5 48.5 4.3C48.5933 4.08667 48.74 3.97333 48.94 3.96C49.58 3.90667 50.2667 3.87333 51 3.86C51.7467 3.83333 52.5 3.82 53.26 3.82C54.2733 3.82 55.2 3.84 56.04 3.88C56.4667 3.90667 56.76 4.02 56.92 4.22C57.08 4.42 57.1933 4.68667 57.26 5.02C57.3 5.20667 57.3333 5.43333 57.36 5.7C57.3867 5.96667 57.4133 6.26 57.44 6.58C57.4667 6.9 57.48 7.23333 57.48 7.58C57.4933 7.91333 57.5 8.24 57.5 8.56ZM65.3722 8.8C65.1455 8.81333 64.9722 8.68667 64.8522 8.42C64.7322 8.15333 64.6722 7.86667 64.6722 7.56C64.6722 7.29333 64.7189 7.04667 64.8122 6.82C64.9189 6.59333 65.0722 6.46667 65.2722 6.44C65.8722 6.38667 66.4989 6.35333 67.1522 6.34C67.8055 6.31333 68.4655 6.3 69.1322 6.3C69.6789 6.3 70.2122 6.30667 70.7322 6.32C71.2655 6.33333 71.7855 6.35333 72.2922 6.38C72.5989 6.40667 72.8389 6.48 73.0122 6.6C73.1855 6.72 73.3122 6.88667 73.3922 7.1C73.4722 7.31333 73.5189 7.56667 73.5322 7.86C73.5455 8.14 73.5522 8.45333 73.5522 8.8C73.5522 9.48 73.5389 10.18 73.5122 10.9C73.4855 11.62 73.4322 12.34 73.3522 13.06C73.2855 13.7667 73.1922 14.4667 73.0722 15.16C72.9655 15.84 72.8322 16.4867 72.6722 17.1C72.6322 17.2733 72.4922 17.4 72.2522 17.48C72.0255 17.56 71.7589 17.6 71.4522 17.6C71.2122 17.6 70.9655 17.5733 70.7122 17.52C70.4722 17.4667 70.2522 17.3933 70.0522 17.3C69.8655 17.2067 69.7189 17.0933 69.6122 16.96C69.5055 16.8133 69.4722 16.6467 69.5122 16.46C69.6189 16.06 69.7189 15.62 69.8122 15.14C69.9189 14.6467 70.0255 14.1467 70.1322 13.64C69.8255 13.6267 69.5122 13.62 69.1922 13.62C68.8855 13.62 68.5789 13.62 68.2722 13.62C67.8455 13.62 67.4255 13.62 67.0122 13.62C66.5989 13.62 66.1789 13.6267 65.7522 13.64C65.5255 13.6533 65.3455 13.52 65.2122 13.24C65.0922 12.96 65.0322 12.66 65.0322 12.34C65.0322 12.0733 65.0789 11.8333 65.1722 11.62C65.2655 11.4067 65.4122 11.2933 65.6122 11.28C66.1589 11.2533 66.6989 11.2333 67.2322 11.22C67.7655 11.2067 68.3055 11.2 68.8522 11.2C69.1189 11.2 69.3922 11.2067 69.6722 11.22C69.9522 11.22 70.2255 11.22 70.4922 11.22C70.5722 10.6333 70.6322 10.0667 70.6722 9.52C70.6989 9.29333 70.6922 9.12667 70.6522 9.02C70.6122 8.91333 70.4855 8.85333 70.2722 8.84C69.8722 8.81333 69.4522 8.79333 69.0122 8.78C68.5722 8.76667 68.1189 8.76 67.6522 8.76C67.2655 8.76 66.8722 8.76667 66.4722 8.78C66.0855 8.78 65.7189 8.78667 65.3722 8.8ZM75.4322 18.56C75.5389 17.6533 75.6122 16.62 75.6522 15.46C75.6922 14.3 75.7122 13.1 75.7122 11.86C75.7122 10.8867 75.6989 9.92667 75.6722 8.98C75.6589 8.02 75.6389 7.11333 75.6122 6.26C75.5989 5.99333 75.7389 5.78667 76.0322 5.64C76.3389 5.48 76.6655 5.4 77.0122 5.4C77.3055 5.4 77.5722 5.46 77.8122 5.58C78.0522 5.7 78.1989 5.89333 78.2522 6.16C78.3589 6.78667 78.4455 7.44667 78.5122 8.14C78.5789 8.82 78.6389 9.53333 78.6922 10.28C78.9989 10.2667 79.2989 10.2667 79.5922 10.28C79.8989 10.28 80.1989 10.2867 80.4922 10.3C80.7322 10.3133 80.9122 10.4467 81.0322 10.7C81.1522 10.94 81.2122 11.2133 81.2122 11.52C81.2122 11.6933 81.1922 11.8667 81.1522 12.04C81.1122 12.2133 81.0522 12.3733 80.9722 12.52C80.8922 12.6533 80.7922 12.7667 80.6722 12.86C80.5522 12.94 80.4122 12.98 80.2522 12.98C79.9989 12.98 79.7522 12.98 79.5122 12.98C79.2855 12.98 79.0522 12.9867 78.8122 13C78.8122 13.2667 78.8122 13.5267 78.8122 13.78C78.8255 14.0333 78.8322 14.2867 78.8322 14.54C78.8322 15.3 78.8189 16.0333 78.7922 16.74C78.7655 17.4467 78.7322 18.1 78.6922 18.7C78.6655 18.94 78.5055 19.1133 78.2122 19.22C77.9189 19.3267 77.5855 19.38 77.2122 19.38C76.9855 19.38 76.7589 19.36 76.5322 19.32C76.3189 19.2933 76.1255 19.24 75.9522 19.16C75.7922 19.0933 75.6589 19.0133 75.5522 18.92C75.4589 18.8133 75.4189 18.6933 75.4322 18.56ZM82.2644 16.28C83.4777 16.3867 84.7244 16.4667 86.0044 16.52C87.2977 16.5733 88.5977 16.6 89.9044 16.6C91.5977 16.6 93.2244 16.56 94.7844 16.48C95.0244 16.4667 95.2044 16.5733 95.3244 16.8C95.4444 17.0133 95.5044 17.2533 95.5044 17.52C95.5044 17.7867 95.4377 18.0467 95.3044 18.3C95.1844 18.54 94.991 18.6867 94.7244 18.74C94.1377 18.8467 93.4977 18.94 92.8044 19.02C92.111 19.1 91.391 19.1667 90.6444 19.22C89.911 19.2733 89.1577 19.3133 88.3844 19.34C87.6244 19.3667 86.8844 19.38 86.1644 19.38C85.431 19.38 84.7377 19.3667 84.0844 19.34C83.431 19.3133 82.8377 19.2733 82.3044 19.22C82.051 19.1933 81.8644 19.02 81.7444 18.7C81.6377 18.38 81.5844 18.0333 81.5844 17.66C81.5844 17.2867 81.6377 16.96 81.7444 16.68C81.8644 16.3867 82.0377 16.2533 82.2644 16.28ZM85.7244 10.8C85.751 11.0667 85.871 11.26 86.0844 11.38C86.2977 11.5 86.5177 11.5667 86.7444 11.58C87.4244 11.62 88.0777 11.64 88.7044 11.64C89.5444 11.64 90.3644 11.6067 91.1644 11.54C91.9644 11.4733 92.8377 11.38 93.7844 11.26C93.891 11.2467 93.9844 11.28 94.0644 11.36C94.1577 11.4267 94.231 11.52 94.2844 11.64C94.351 11.76 94.3977 11.9 94.4244 12.06C94.4644 12.2067 94.4844 12.36 94.4844 12.52C94.4844 12.7333 94.4444 12.9267 94.3644 13.1C94.2977 13.26 94.1844 13.36 94.0244 13.4C92.8377 13.6667 91.7244 13.8667 90.6844 14C89.6444 14.1333 88.6044 14.2 87.5644 14.2C86.991 14.2 86.411 14.18 85.8244 14.14C85.251 14.1 84.6577 14.0333 84.0444 13.94C83.6177 13.8733 83.2844 13.7267 83.0444 13.5C82.8044 13.2733 82.6644 12.92 82.6244 12.44C82.5977 12.0667 82.5777 11.7 82.5644 11.34C82.551 10.98 82.5444 10.6267 82.5444 10.28C82.5444 9.48 82.5777 8.69333 82.6444 7.92C82.711 7.14667 82.8044 6.34667 82.9244 5.52C82.9777 5.12 83.131 4.80667 83.3844 4.58C83.651 4.34 83.9577 4.21333 84.3044 4.2C85.0244 4.17333 85.7244 4.15333 86.4044 4.14C87.0844 4.11333 87.7644 4.1 88.4444 4.1C89.2844 4.1 90.111 4.12 90.9244 4.16C91.7377 4.18667 92.5844 4.24 93.4644 4.32C93.7044 4.34667 93.8844 4.48 94.0044 4.72C94.1244 4.96 94.1844 5.22 94.1844 5.5C94.1844 5.80667 94.1177 6.08667 93.9844 6.34C93.8644 6.59333 93.6777 6.71333 93.4244 6.7C93.011 6.68667 92.611 6.68 92.2244 6.68C91.8377 6.66667 91.451 6.66 91.0644 6.66C90.2644 6.66 89.4844 6.68 88.7244 6.72C87.9777 6.74667 87.2044 6.80667 86.4044 6.9C86.2044 6.92667 86.0577 6.99333 85.9644 7.1C85.871 7.19333 85.811 7.36 85.7844 7.6C85.7577 7.92 85.731 8.25333 85.7044 8.6C85.691 8.94667 85.6844 9.29333 85.6844 9.64C85.6844 9.84 85.6844 10.04 85.6844 10.24C85.6977 10.4267 85.711 10.6133 85.7244 10.8Z" fill="url(#paint1_linear_785_3236)"/>
</g>
<defs>
<filter id="filter0_i_785_3236" x="4.84814" y="3.48279" width="14.2996" height="14.7749" filterUnits="userSpaceOnUse" color-interpolation-filters="sRGB">
<feFlood flood-opacity="0" result="BackgroundImageFix"/>
<feBlend mode="normal" in="SourceGraphic" in2="BackgroundImageFix" result="shape"/>
<feColorMatrix in="SourceAlpha" type="matrix" values="0 0 0 0 0 0 0 0 0 0 0 0 0 0 0 0 0 0 127 0" result="hardAlpha"/>
<feOffset dy="0.475248"/>
<feGaussianBlur stdDeviation="0.237624"/>
<feComposite in2="hardAlpha" operator="arithmetic" k2="-1" k3="1"/>
<feColorMatrix type="matrix" values="0 0 0 0 1 0 0 0 0 1 0 0 0 0 1 0 0 0 0.6 0"/>
<feBlend mode="normal" in2="shape" result="effect1_innerShadow_785_3236"/>
</filter>
<filter id="filter1_i_785_3236" x="6.29706" y="6.05939" width="11.4059" height="12.9505" filterUnits="userSpaceOnUse" color-interpolation-filters="sRGB">
<feFlood flood-opacity="0" result="BackgroundImageFix"/>
<feBlend mode="normal" in="SourceGraphic" in2="BackgroundImageFix" result="shape"/>
<feColorMatrix in="SourceAlpha" type="matrix" values="0 0 0 0 0 0 0 0 0 0 0 0 0 0 0 0 0 0 127 0" result="hardAlpha"/>
<feOffset dy="0.237624"/>
<feGaussianBlur stdDeviation="0.118812"/>
<feComposite in2="hardAlpha" operator="arithmetic" k2="-1" k3="1"/>
<feColorMatrix type="matrix" values="0 0 0 0 1 0 0 0 0 1 0 0 0 0 1 0 0 0 0.2 0"/>
<feBlend mode="normal" in2="shape" result="effect1_innerShadow_785_3236"/>
</filter>
<filter id="filter2_d_785_3236" x="3.71557" y="10.54" width="16.5689" height="10.8461" filterUnits="userSpaceOnUse" color-interpolation-filters="sRGB">
<feFlood flood-opacity="0" result="BackgroundImageFix"/>
<feColorMatrix in="SourceAlpha" type="matrix" values="0 0 0 0 0 0 0 0 0 0 0 0 0 0 0 0 0 0 127 0" result="hardAlpha"/>
<feOffset dy="0.594059"/>
<feGaussianBlur stdDeviation="0.594059"/>
<feComposite in2="hardAlpha" operator="out"/>
<feColorMatrix type="matrix" values="0 0 0 0 0 0 0 0 0 0 0 0 0 0 0 0 0 0 0.25 0"/>
<feBlend mode="normal" in2="BackgroundImageFix" result="effect1_dropShadow_785_3236"/>
<feBlend mode="normal" in="SourceGraphic" in2="effect1_dropShadow_785_3236" result="shape"/>
</filter>
<filter id="filter3_i_785_3236" x="32.6" y="3.65997" width="63.9044" height="19.46" filterUnits="userSpaceOnUse" color-interpolation-filters="sRGB">
<feFlood flood-opacity="0" result="BackgroundImageFix"/>
<feBlend mode="normal" in="SourceGraphic" in2="BackgroundImageFix" result="shape"/>
<feColorMatrix in="SourceAlpha" type="matrix" values="0 0 0 0 0 0 0 0 0 0 0 0 0 0 0 0 0 0 127 0" result="hardAlpha"/>
<feOffset dx="1" dy="1"/>
<feGaussianBlur stdDeviation="1"/>
<feComposite in2="hardAlpha" operator="arithmetic" k2="-1" k3="1"/>
<feColorMatrix type="matrix" values="0 0 0 0 1 0 0 0 0 1 0 0 0 0 1 0 0 0 0.25 0"/>
<feBlend mode="normal" in2="shape" result="effect1_innerShadow_785_3236"/>
</filter>
<linearGradient id="paint0_linear_785_3236" x1="12" y1="6.05939" x2="12" y2="14.1386" gradientUnits="userSpaceOnUse">
<stop stop-color="#FF9999"/>
<stop offset="1" stop-color="#FF6666"/>
</linearGradient>
<linearGradient id="paint1_linear_785_3236" x1="64" y1="0" x2="64" y2="24" gradientUnits="userSpaceOnUse">
<stop stop-color="#FF9999"/>
<stop offset="1" stop-color="#FF6666"/>
</linearGradient>
</defs>
</svg>
