<svg width="88" height="88" viewBox="0 0 88 88" fill="none" xmlns="http://www.w3.org/2000/svg">
<rect width="88" height="88" rx="12" fill="#FF6666"/>
<g filter="url(#filter0_i_672_7995)">
<rect x="16.333" y="38.9863" width="39.1166" height="39.1166" rx="3.48515" transform="rotate(-45 16.333 38.9863)" fill="#F5F5F5"/>
</g>
<g filter="url(#filter1_i_672_7995)">
<rect x="23.0889" y="22.2178" width="41.8218" height="46.6139" rx="5.22772" fill="url(#paint0_linear_672_7995)"/>
</g>
<path d="M47.6226 53.308C47.1307 53.6551 47.1307 54.3846 47.6226 54.7318L68.7649 69.6508C69.3421 70.0581 70.1385 69.6453 70.1385 68.9389L70.1385 39.1008C70.1385 38.3944 69.3421 37.9817 68.7649 38.3889L47.6226 53.308Z" fill="white"/>
<path d="M40.3774 53.308C40.8693 53.6551 40.8693 54.3846 40.3774 54.7318L19.2351 69.6508C18.6579 70.0581 17.8615 69.6453 17.8615 68.9389L17.8615 39.1008C17.8615 38.3944 18.6579 37.9817 19.2351 38.3889L40.3774 53.308Z" fill="white"/>
<g filter="url(#filter2_d_672_7995)">
<path d="M46.5453 41.9294C45.1679 40.4567 42.832 40.4567 41.4547 41.9294L18.9268 66.0155C16.844 68.2423 18.423 71.8813 21.4721 71.8813L66.5279 71.8813C69.577 71.8813 71.156 68.2423 69.0732 66.0155L46.5453 41.9294Z" fill="white"/>
</g>
<defs>
<filter id="filter0_i_672_7995" x="17.7764" y="12.7705" width="52.4321" height="54.1742" filterUnits="userSpaceOnUse" color-interpolation-filters="sRGB">
<feFlood flood-opacity="0" result="BackgroundImageFix"/>
<feBlend mode="normal" in="SourceGraphic" in2="BackgroundImageFix" result="shape"/>
<feColorMatrix in="SourceAlpha" type="matrix" values="0 0 0 0 0 0 0 0 0 0 0 0 0 0 0 0 0 0 127 0" result="hardAlpha"/>
<feOffset dy="1.74257"/>
<feGaussianBlur stdDeviation="0.871287"/>
<feComposite in2="hardAlpha" operator="arithmetic" k2="-1" k3="1"/>
<feColorMatrix type="matrix" values="0 0 0 0 1 0 0 0 0 1 0 0 0 0 1 0 0 0 0.6 0"/>
<feBlend mode="normal" in2="shape" result="effect1_innerShadow_672_7995"/>
</filter>
<filter id="filter1_i_672_7995" x="23.0889" y="22.2178" width="41.8218" height="47.4851" filterUnits="userSpaceOnUse" color-interpolation-filters="sRGB">
<feFlood flood-opacity="0" result="BackgroundImageFix"/>
<feBlend mode="normal" in="SourceGraphic" in2="BackgroundImageFix" result="shape"/>
<feColorMatrix in="SourceAlpha" type="matrix" values="0 0 0 0 0 0 0 0 0 0 0 0 0 0 0 0 0 0 127 0" result="hardAlpha"/>
<feOffset dy="0.871287"/>
<feGaussianBlur stdDeviation="0.435644"/>
<feComposite in2="hardAlpha" operator="arithmetic" k2="-1" k3="1"/>
<feColorMatrix type="matrix" values="0 0 0 0 1 0 0 0 0 1 0 0 0 0 1 0 0 0 0.2 0"/>
<feBlend mode="normal" in2="shape" result="effect1_innerShadow_672_7995"/>
</filter>
<filter id="filter2_d_672_7995" x="13.6235" y="38.6465" width="60.7529" height="39.7695" filterUnits="userSpaceOnUse" color-interpolation-filters="sRGB">
<feFlood flood-opacity="0" result="BackgroundImageFix"/>
<feColorMatrix in="SourceAlpha" type="matrix" values="0 0 0 0 0 0 0 0 0 0 0 0 0 0 0 0 0 0 127 0" result="hardAlpha"/>
<feOffset dy="2.17822"/>
<feGaussianBlur stdDeviation="2.17822"/>
<feComposite in2="hardAlpha" operator="out"/>
<feColorMatrix type="matrix" values="0 0 0 0 0 0 0 0 0 0 0 0 0 0 0 0 0 0 0.25 0"/>
<feBlend mode="normal" in2="BackgroundImageFix" result="effect1_dropShadow_672_7995"/>
<feBlend mode="normal" in="SourceGraphic" in2="effect1_dropShadow_672_7995" result="shape"/>
</filter>
<linearGradient id="paint0_linear_672_7995" x1="43.9998" y1="22.2178" x2="43.9998" y2="51.8415" gradientUnits="userSpaceOnUse">
<stop stop-color="#FF9999"/>
<stop offset="1" stop-color="#FF6666"/>
</linearGradient>
</defs>
</svg>
