<svg width="161" height="44" viewBox="0 0 161 44" fill="none" xmlns="http://www.w3.org/2000/svg">
<g filter="url(#filter0_i_672_8001)">
<path d="M9.44625 11.42C12.1663 11.42 13.9663 13.42 13.9663 15.74C13.9663 17.98 12.5663 19.34 9.46625 19.34C6.42625 19.34 5.02625 18.04 5.02625 15.88C5.02625 13.4 6.76625 11.42 9.44625 11.42ZM3.72625 7.48C3.78625 7.9 4.24625 8.04 4.70625 8.06C5.22625 8.1 5.76625 8.12 6.32625 8.12C7.46625 8.12 8.66625 8.04 9.74625 7.92C10.1463 7.88 10.4463 8.52 10.4463 9.08C10.4463 9.46 10.3263 9.78 10.0063 9.86C8.34625 10.28 6.62625 10.54 4.92625 10.54C3.92625 10.54 2.92625 10.44 1.96625 10.24C1.28625 10.08 0.86625 9.56 0.76625 8.98C0.68625 8.5 0.64625 7.78 0.64625 7C0.64625 5.28 0.82625 3.16 1.02625 2.12C1.16625 1.48 1.72625 1.12 2.36625 1.06C3.16625 0.999999 3.96625 0.959999 4.78625 0.959999C6.20625 0.959999 7.64625 1.06 9.02625 1.18C9.58625 1.22 9.84625 1.74 9.84625 2.26C9.84625 2.8 9.54625 3.34 8.98625 3.34C7.90625 3.34 5.48625 3.36 4.38625 3.5C3.98625 3.56 3.82625 3.82 3.78625 4.2C3.70625 4.88 3.68625 5.52 3.68625 6.18C3.68625 6.62 3.68625 7.04 3.72625 7.48ZM11.0263 10.22C11.1263 9.12 11.1863 7.86 11.1863 6.54C11.1863 4.92 11.1063 3.2 11.0263 1.52C10.9863 0.979999 11.7063 0.66 12.4063 0.66C12.9863 0.66 13.5663 0.879999 13.6663 1.42C13.8463 2.44 13.9863 3.52 14.0863 4.62C14.6863 4.6 15.3263 4.62 15.8863 4.64C16.3663 4.66 16.6063 5.24 16.6063 5.86C16.6063 6.56 16.2863 7.32 15.6463 7.32C15.1463 7.32 14.7063 7.32 14.2263 7.34C14.2463 7.72 14.2463 8.1 14.2463 8.46C14.2463 9.14 14.2263 9.78 14.1863 10.38C14.1663 10.88 13.3863 11.14 12.6263 11.14C11.7863 11.14 10.9663 10.84 11.0263 10.22ZM9.52625 13.86C8.26625 13.86 7.80625 14.84 7.80625 15.68C7.80625 16.52 8.56625 16.92 9.46625 16.92C10.3863 16.92 11.2663 16.5 11.2663 15.64C11.2663 14.6 10.6463 13.86 9.52625 13.86ZM19.6984 11.1C19.0384 11.8 15.9984 10.14 16.9384 9.32C19.3184 7.2 20.7384 4.68 20.7984 1.6C20.8184 1.04 21.5984 0.719999 22.3384 0.719999C22.9984 0.719999 23.6184 0.959999 23.6384 1.5C23.6584 1.74 23.6584 1.98 23.6584 2.2C23.6584 3.32 23.4984 4.34 23.2184 5.32C24.9184 6.36 26.3384 7.46 27.3584 8.7C28.0384 9.54 26.6184 10.9 25.6984 10.9C25.4784 10.9 25.2784 10.82 25.1584 10.64C24.3784 9.56 23.3784 8.58 22.2384 7.66C21.5784 8.88 20.6984 10 19.6984 11.1ZM25.0984 15.78C25.1384 16.24 25.6184 16.42 26.0784 16.46C26.4784 16.48 26.8984 16.5 27.3384 16.5C28.5184 16.5 29.7384 16.4 30.8584 16.26C31.2584 16.22 31.5584 16.88 31.5584 17.48C31.5584 17.86 31.4384 18.2 31.1384 18.3C29.5784 18.78 27.8584 19.06 26.1784 19.06C24.7584 19.06 22.2384 18.92 22.0384 17.36C21.9784 16.84 21.9384 16.32 21.9384 15.78C21.9384 14.72 22.0584 13.64 22.2184 12.62C22.2984 12.1 22.8584 11.9 23.4784 11.9C24.2984 11.9 25.1984 12.26 25.1584 12.7C25.0984 13.4 25.0784 14.08 25.0784 14.76C25.0784 15.1 25.0784 15.44 25.0984 15.78ZM28.8184 1.52C28.7784 0.979999 29.4984 0.66 30.1984 0.66C30.7784 0.66 31.3584 0.879999 31.4384 1.42C31.8384 4.06 32.0184 6.8 32.0184 9.48C32.0184 10.36 31.9984 11.2 31.9584 12.06C31.9384 12.56 31.1984 12.82 30.4384 12.82C29.6184 12.82 28.7784 12.52 28.8184 11.9C28.9184 10.2 28.9584 8.44 28.9584 6.64C28.9584 4.94 28.9184 3.22 28.8184 1.52ZM45.8706 15.56C46.0906 13.76 46.1506 11.32 46.1506 8.86C46.1506 6.92 46.1106 4.96 46.0506 3.26C46.0306 2.72 46.7506 2.4 47.4306 2.4C48.0106 2.4 48.5506 2.62 48.6506 3.16C49.0506 5.62 49.2306 8.8 49.2306 11.68C49.2306 13.14 49.1906 14.54 49.0906 15.7C49.0506 16.18 48.3706 16.38 47.6306 16.38C46.7506 16.38 45.8106 16.08 45.8706 15.56ZM34.8306 12.98C36.8306 13.18 39.1106 13.28 41.3306 13.28C42.5506 13.28 43.7506 13.26 44.8506 13.18C45.2106 13.16 45.4106 13.7 45.4106 14.24C45.4106 14.78 45.2106 15.34 44.7906 15.44C42.9706 15.86 40.2906 16.06 37.9506 16.06C36.7906 16.06 35.7106 16.02 34.8706 15.92C34.4306 15.88 34.2106 15.12 34.2106 14.38C34.2106 13.64 34.4306 12.94 34.8306 12.98ZM39.7306 4.88C38.1706 4.88 37.6106 6.26 37.6106 7.48C37.6106 8.52 38.5106 9.14 39.6706 9.14C40.8506 9.14 41.8906 8.5 41.8906 7.4C41.8906 6.02 41.1706 4.88 39.7306 4.88ZM39.6706 2.26C42.7106 2.26 44.7506 4.68 44.7506 7.44C44.7506 10.1 43.2106 11.74 39.6706 11.74C36.2306 11.74 34.6506 10.18 34.6506 7.58C34.6506 4.68 36.6306 2.26 39.6706 2.26ZM59.1483 17.82C59.1083 16.56 59.2083 15.16 59.4683 13.68C59.5483 13.12 60.0683 12.86 60.6483 12.8C61.0683 12.76 61.5483 12.74 62.0683 12.72V11.32C61.3483 11.34 60.6083 11.34 59.8883 11.34C59.0083 11.34 58.1483 11.34 57.3083 11.3C56.8083 11.3 56.5883 10.62 56.5883 9.94C56.5883 9.26 56.8083 8.6 57.2683 8.62C60.1083 8.78 63.1883 8.88 66.1483 8.88C67.3883 8.88 68.6283 8.86 69.7883 8.82C70.2683 8.8 70.5083 9.3 70.5083 9.8C70.5083 10.3 70.2683 10.82 69.7283 10.86C68.2283 11 66.6683 11.12 65.0683 11.2L65.1483 12.76C65.6883 12.78 66.2283 12.84 66.7083 12.9C67.5483 13 67.8083 13.38 67.9283 14.04C68.0683 14.88 68.1283 15.72 68.1283 16.56C68.1283 16.96 68.1283 17.36 68.0883 17.74C68.0083 18.94 65.7083 19.52 63.4683 19.52C61.2883 19.52 59.1683 19 59.1483 17.82ZM64.1083 3.06C63.6683 3.06 63.4283 2.44 63.4283 1.84C63.4283 1.3 63.6283 0.779999 64.0083 0.76C64.8083 0.679999 65.7883 0.66 66.7483 0.66C67.3883 0.66 68.0083 0.66 68.5483 0.699999C69.7083 0.76 69.7283 1.72 69.7283 3.06C69.7283 4.58 69.7283 6.24 69.5683 7.68C69.5283 8.08 68.8283 8.3 68.1283 8.3C67.2683 8.3 66.3683 7.98 66.4683 7.36C66.6483 6.38 66.7883 4.98 66.8083 3.78C66.8083 3.32 66.8283 3.12 66.4283 3.1C65.7883 3.06 64.7483 3.06 64.1083 3.06ZM57.4283 3.56C57.0083 3.56 56.7683 2.94 56.7683 2.34C56.7683 1.8 56.9483 1.28 57.3483 1.26C58.1483 1.18 59.1083 1.16 60.0483 1.16C60.6683 1.16 61.2683 1.16 61.8083 1.2C62.9683 1.26 62.9883 2.22 62.9883 3.56C62.9883 4.72 62.9083 6.14 62.6083 7.58C62.5483 7.92 62.0283 8.06 61.4483 8.06C60.4883 8.06 59.3283 7.66 59.5283 6.96C59.7883 6.02 60.0283 5 60.0883 4.28C60.1283 3.82 60.1083 3.62 59.7083 3.6C59.0483 3.56 58.0883 3.56 57.4283 3.56ZM65.4283 16.64C65.4283 16.36 65.3883 15.56 65.3283 15.26C65.2683 15.02 64.9683 14.94 64.6683 14.94C64.4083 14.94 64.1083 14.92 63.7883 14.92C63.3483 14.92 62.8883 14.94 62.5283 14.96C62.1683 14.98 62.1083 15.1 62.0683 15.28C62.0283 15.56 61.9683 16.38 61.9683 16.66C61.9683 17.04 62.8483 17.22 63.7083 17.22C64.5483 17.22 65.4283 17.04 65.4283 16.64ZM78.4683 0.399999C81.9283 0.399999 84.2083 2.3 84.2083 4.46C84.2083 6.56 82.4283 7.86 78.4683 7.86C74.5883 7.86 72.7883 6.62 72.7883 4.62C72.7883 2.28 75.0083 0.399999 78.4683 0.399999ZM83.3283 15.32C83.3683 16.24 82.9483 16.56 82.2283 16.56C80.2883 16.56 78.7883 16.58 76.8883 16.62C76.6683 16.62 76.6483 17.4 76.8683 17.4C77.5683 17.42 78.2283 17.44 78.8883 17.44C80.3883 17.44 81.8483 17.38 83.3883 17.28C83.7083 17.24 83.9083 17.76 83.9083 18.2C83.9083 18.52 83.8083 18.8 83.5883 18.84C81.7883 19.2 79.8683 19.4 77.9683 19.4C76.8283 19.4 75.7083 19.34 74.6283 19.18C74.0883 19.1 73.7483 18.58 73.7083 18C73.6883 17.62 73.6683 17.24 73.6683 16.86C73.6683 16.48 73.6883 16.12 73.7083 15.74C73.7483 15.14 74.1483 14.82 74.7883 14.8C75.8483 14.76 76.7683 14.76 77.6483 14.76H80.2483C80.4083 14.76 80.4283 14.08 80.1683 14.06C78.9883 14 77.9283 13.96 76.9083 13.96C76.0483 13.96 75.2083 13.98 74.3283 14.04C73.9883 14.06 73.8083 13.54 73.8083 13.02C73.8083 12.54 73.9483 12.08 74.2683 12.06C75.5683 11.94 76.8483 11.88 78.0883 11.88C79.4683 11.88 80.8083 11.94 82.1483 12.02C82.8283 12.06 83.0283 12.46 83.1283 13.06C83.2283 13.76 83.2883 14.36 83.3283 15.32ZM72.2683 8.42C75.1883 8.56 78.3883 8.66 81.4283 8.66C82.5883 8.66 83.7083 8.66 84.7883 8.62C85.2683 8.6 85.5083 9.06 85.5083 9.54C85.5083 10 85.2683 10.48 84.7283 10.52C81.6283 10.8 78.1483 10.98 74.8683 10.98C74.0083 10.98 73.1483 10.96 72.3083 10.94C71.8083 10.94 71.5883 10.3 71.5883 9.66C71.5883 9.02 71.8083 8.4 72.2683 8.42ZM78.5083 2.76C76.4283 2.76 75.6883 3.58 75.6883 4.42C75.6883 5.16 76.9083 5.52 78.4683 5.52C79.9683 5.52 81.4483 5.14 81.4483 4.34C81.4483 3.44 80.4283 2.76 78.5083 2.76ZM96.6538 17.22C96.6138 15.82 96.7337 14.26 96.9938 12.62C97.0938 11.98 97.6138 11.7 98.2138 11.64C99.0138 11.56 99.9938 11.52 101.014 11.52C102.234 11.52 103.494 11.58 104.514 11.74C105.394 11.86 105.674 12.28 105.794 13.02C105.934 14 105.994 15 105.994 15.98C105.994 16.36 105.994 16.74 105.974 17.12C105.874 18.46 103.494 19.1 101.174 19.1C98.8938 19.1 96.6938 18.52 96.6538 17.22ZM95.9138 7.48C95.9738 7.9 96.4338 8.04 96.8938 8.06C97.4138 8.1 97.9538 8.12 98.5138 8.12C99.6538 8.12 100.854 8.04 101.934 7.92C102.334 7.88 102.634 8.52 102.634 9.08C102.634 9.46 102.514 9.78 102.194 9.86C100.534 10.28 98.8138 10.54 97.1138 10.54C96.1138 10.54 95.1138 10.44 94.1538 10.24C93.4738 10.08 93.0538 9.56 92.9538 8.98C92.8738 8.5 92.8338 7.78 92.8338 7C92.8338 5.28 93.0138 3.16 93.2138 2.12C93.3538 1.48 93.9138 1.12 94.5538 1.06C95.3538 0.999999 96.1538 0.959999 96.9738 0.959999C98.3938 0.959999 99.8338 1.06 101.214 1.18C101.774 1.22 102.034 1.74 102.034 2.26C102.034 2.8 101.734 3.34 101.174 3.34C100.094 3.34 97.6738 3.36 96.5738 3.5C96.1738 3.56 96.0138 3.82 95.9738 4.2C95.8938 4.88 95.8738 5.52 95.8738 6.18C95.8738 6.62 95.8738 7.04 95.9138 7.48ZM103.214 10.1C103.314 9 103.374 7.76 103.374 6.46C103.374 4.88 103.294 3.2 103.214 1.52C103.174 0.979999 103.894 0.66 104.594 0.66C105.174 0.66 105.754 0.879999 105.854 1.42C106.034 2.44 106.174 3.5 106.274 4.58C106.874 4.56 107.514 4.58 108.074 4.6C108.554 4.62 108.794 5.2 108.794 5.82C108.794 6.52 108.474 7.28 107.834 7.28C107.334 7.28 106.894 7.28 106.414 7.3C106.414 7.68 106.434 8.06 106.434 8.42C106.434 9.06 106.414 9.68 106.374 10.26C106.354 10.76 105.574 11.02 104.814 11.02C103.974 11.02 103.154 10.72 103.214 10.1ZM103.294 16C103.294 15.62 103.274 14.6 103.174 14.22C103.114 13.88 102.814 13.78 102.474 13.76C102.214 13.74 101.894 13.72 101.574 13.72C101.074 13.72 100.554 13.76 100.134 13.8C99.7138 13.84 99.6538 14 99.6338 14.24C99.5938 14.6 99.5138 15.64 99.5138 16.04C99.5138 16.54 100.474 16.78 101.394 16.78C102.314 16.78 103.294 16.54 103.294 16ZM109.866 9.86C112.706 10.02 115.786 10.12 118.746 10.12C119.986 10.12 121.226 10.1 122.386 10.06C122.866 10.04 123.106 10.54 123.106 11.04C123.106 11.54 122.866 12.06 122.326 12.1C119.226 12.4 115.746 12.58 112.446 12.58C111.586 12.58 110.726 12.56 109.906 12.54C109.406 12.54 109.186 11.86 109.186 11.18C109.186 10.5 109.406 9.84 109.866 9.86ZM114.786 16.18C114.786 16.64 115.306 16.82 115.766 16.86C116.166 16.88 116.606 16.9 117.046 16.9C118.246 16.9 119.526 16.8 120.646 16.66C121.046 16.62 121.406 17.28 121.406 17.88C121.406 18.24 121.266 18.6 120.926 18.7C119.366 19.18 117.546 19.46 115.866 19.46C114.446 19.46 111.726 19.34 111.726 17.76C111.726 16.52 111.786 15.26 111.906 14.02C111.966 13.5 112.526 13.3 113.146 13.3C113.966 13.3 114.886 13.66 114.846 14.1C114.806 14.86 114.786 15.54 114.786 16.18ZM116.106 2.9C114.026 2.9 113.286 3.98 113.286 5.02C113.286 5.96 114.506 6.42 116.066 6.42C117.566 6.42 119.046 5.94 119.046 4.92C119.046 3.78 118.026 2.9 116.106 2.9ZM116.066 0.419999C119.526 0.419999 121.806 2.58 121.806 5.02C121.806 7.42 120.026 8.88 116.066 8.88C112.186 8.88 110.386 7.48 110.386 5.2C110.386 2.56 112.606 0.419999 116.066 0.419999ZM131.091 5.34C130.711 5.36 130.491 4.74 130.491 4.08C130.491 3.42 130.711 2.76 131.151 2.74C132.451 2.7 133.831 2.68 135.231 2.68C135.251 2.1 135.271 1.4 135.271 0.879999C135.271 0.499999 135.931 0.299999 136.591 0.299999C137.291 0.299999 137.991 0.519999 138.071 0.979999C138.151 1.54 138.211 2.18 138.251 2.74C139.651 2.8 141.031 2.86 142.311 2.94C142.791 2.96 143.031 3.54 143.031 4.1C143.031 4.66 142.791 5.22 142.371 5.2C141.251 5.16 140.091 5.14 138.871 5.14H138.051C137.951 5.62 137.811 6.1 137.631 6.56C139.891 7.38 141.791 8.3 143.211 9.42C143.411 9.58 143.491 9.8 143.491 10.02C143.491 10.96 141.991 12.22 141.351 11.6C140.211 10.5 138.551 9.5 136.471 8.56C135.531 9.8 134.191 10.88 132.471 11.82C131.731 12.32 129.111 10.24 130.191 9.72C132.751 8.5 134.371 7.06 135.011 5.2C133.671 5.24 132.351 5.28 131.091 5.34ZM130.471 13.46C131.991 13.62 133.631 13.72 135.271 13.76C135.291 12.88 135.331 12.04 135.391 11.06C135.431 10.66 136.171 10.44 136.911 10.44C137.631 10.44 138.331 10.64 138.351 11.08C138.411 11.94 138.471 12.9 138.551 13.78C140.071 13.78 141.571 13.72 142.991 13.64C143.471 13.62 143.711 14.12 143.711 14.66C143.711 15.2 143.471 15.76 142.931 15.86C140.571 16.28 137.191 16.48 134.271 16.48C132.851 16.48 131.551 16.44 130.511 16.34C130.011 16.3 129.791 15.54 129.791 14.82C129.791 14.1 130.011 13.42 130.471 13.46ZM153.071 15.36C153.271 13.52 153.331 11.08 153.331 8.62C153.331 6.78 153.291 4.92 153.251 3.26C153.231 2.72 153.891 2.4 154.511 2.4C155.051 2.4 155.551 2.62 155.631 3.16C155.811 4.5 155.951 6.02 156.051 7.58C156.271 7.58 156.511 7.56 156.731 7.56C156.951 7.56 157.171 7.58 157.411 7.58L157.331 3.26C157.311 2.72 157.971 2.4 158.611 2.4C159.151 2.4 159.671 2.62 159.771 3.16C160.131 5.62 160.311 8.84 160.311 11.72C160.311 13.18 160.251 14.56 160.171 15.7C160.131 16.18 159.491 16.38 158.791 16.38C157.971 16.38 157.091 16.08 157.151 15.56C157.311 14.1 157.371 12.2 157.391 10.22C156.971 10.2 156.551 10.2 156.151 10.2C156.151 10.68 156.171 11.16 156.171 11.64C156.171 13.06 156.111 14.38 156.031 15.5C155.991 15.98 155.371 16.18 154.691 16.18C153.891 16.18 153.011 15.88 153.071 15.36ZM148.011 10.7C148.031 11.18 148.411 11.34 148.791 11.36C149.091 11.38 149.371 11.4 149.671 11.4C150.551 11.4 151.451 11.3 152.311 11.18C152.651 11.14 152.891 11.8 152.891 12.38C152.891 12.76 152.771 13.12 152.531 13.2C151.311 13.64 150.031 13.9 148.691 13.9C147.931 13.9 147.151 13.82 146.351 13.62C145.811 13.48 145.471 12.88 145.391 12.24C145.331 11.72 145.291 10.96 145.291 10.12C145.291 8.18 145.451 5.78 145.611 4.6C145.711 3.9 146.171 3.48 146.671 3.44C147.311 3.38 147.951 3.34 148.611 3.34C149.651 3.34 150.711 3.42 151.751 3.56C152.191 3.62 152.391 4.16 152.391 4.7C152.391 5.28 152.171 5.84 151.711 5.84H151.071C150.231 5.84 149.371 5.86 148.531 5.98C148.211 6.02 148.091 6.34 148.051 6.76C147.991 7.54 147.951 8.36 147.951 9.16C147.951 9.7 147.971 10.22 148.011 10.7ZM32.0925 37.28C34.5125 37.5 37.1325 37.6 39.7325 37.6C41.3925 37.6 43.0525 37.56 44.6125 37.48C45.0925 37.46 45.3325 37.98 45.3325 38.52C45.3325 39.06 45.0925 39.64 44.5525 39.74C42.2125 40.16 38.8925 40.38 35.9925 40.38C34.5325 40.38 33.1925 40.32 32.1325 40.22C31.6325 40.18 31.4125 39.4 31.4125 38.66C31.4125 37.92 31.6325 37.22 32.0925 37.28ZM35.5525 31.8C35.5925 32.34 36.1325 32.56 36.5725 32.58C37.2525 32.62 37.9125 32.64 38.5325 32.64C40.1925 32.64 41.7325 32.5 43.6125 32.26C44.0325 32.22 44.3125 32.9 44.3125 33.52C44.3125 33.94 44.1725 34.32 43.8525 34.4C41.4925 34.92 39.4725 35.2 37.3925 35.2C36.2525 35.2 35.0925 35.12 33.8725 34.94C33.0325 34.82 32.5325 34.4 32.4525 33.44C32.3925 32.7 32.3725 31.98 32.3725 31.28C32.3725 29.7 32.5125 28.16 32.7525 26.52C32.8525 25.72 33.4525 25.22 34.1325 25.2C35.5725 25.14 36.9325 25.1 38.2725 25.1C39.9325 25.1 41.5525 25.16 43.2925 25.32C43.7725 25.36 44.0125 25.94 44.0125 26.5C44.0125 27.1 43.7525 27.72 43.2525 27.7C42.4325 27.68 41.6525 27.66 40.8925 27.66C39.3125 27.66 37.8125 27.72 36.2325 27.9C35.8325 27.94 35.6525 28.12 35.6125 28.6C35.5525 29.24 35.5125 29.94 35.5125 30.64C35.5125 31.04 35.5325 31.44 35.5525 31.8ZM58.2325 34.42C58.3325 33.32 58.3925 32.02 58.3925 30.64C58.3925 28.98 58.3125 27.2 58.2325 25.52C58.1925 24.98 58.9125 24.66 59.6125 24.66C60.1925 24.66 60.7725 24.88 60.8725 25.42C61.2725 27.62 61.4525 30.22 61.4525 32.48C61.4525 33.22 61.4325 33.94 61.3925 34.58C61.3725 35.08 60.5925 35.34 59.8325 35.34C58.9925 35.34 58.1725 35.04 58.2325 34.42ZM51.2725 41.32C51.2325 39.96 51.3525 38.48 51.6125 36.92C51.7125 36.28 52.2325 36.04 52.8325 35.98C53.6525 35.9 54.6525 35.86 55.6925 35.86C56.8925 35.86 58.1325 35.92 59.1325 36.06C60.0125 36.16 60.2925 36.58 60.4125 37.28C60.5525 38.24 60.6125 39.2 60.6125 40.14C60.6125 40.5 60.6125 40.86 60.5925 41.22C60.4925 42.52 58.1125 43.12 55.7925 43.12C53.5125 43.12 51.3125 42.58 51.2725 41.32ZM57.9125 40.12C57.9125 39.8 57.8925 38.84 57.7925 38.46C57.7325 38.12 57.4325 38.04 57.0925 38.02C56.8325 38 56.5325 38 56.2125 38C55.7125 38 55.1725 38.02 54.7525 38.04C54.3325 38.08 54.2725 38.24 54.2525 38.48C54.2125 38.84 54.1325 39.82 54.1325 40.16C54.1325 40.66 55.0925 40.9 56.0125 40.9C56.9325 40.9 57.9125 40.66 57.9125 40.12ZM56.3125 29.56C56.3125 30.14 56.0525 30.66 55.1325 30.66C53.9525 30.66 51.9725 30.7 50.8325 30.74C50.4525 30.76 50.2125 30.98 50.2125 31.34C50.2125 31.56 50.2125 31.7 50.2525 31.98C50.3125 32.38 50.7925 32.44 51.2325 32.46C51.6325 32.46 52.0325 32.48 52.4525 32.48C53.7525 32.48 55.0925 32.42 56.3325 32.32C56.7325 32.3 57.0125 32.84 57.0125 33.32C57.0125 33.66 56.8925 33.96 56.5725 34.04C55.0125 34.42 53.1925 34.68 51.3525 34.68C50.3325 34.68 49.3125 34.6 48.3125 34.42C47.6325 34.3 47.2325 33.78 47.1725 33.2C47.1325 32.62 47.1125 32.08 47.1125 31.52C47.1125 30.96 47.1325 30.4 47.1725 29.76C47.2125 29.14 47.7125 28.78 48.5125 28.74C49.6925 28.7 51.6525 28.7 52.8325 28.7C53.2125 28.7 53.3925 28.58 53.3725 28.22C53.3525 27.96 53.3525 27.66 53.3125 27.44C53.2725 27.16 53.0325 27.1 52.6725 27.08C52.0325 27.06 51.1725 27.06 50.2925 27.06C49.4125 27.06 48.5325 27.06 47.8325 27.08C47.4125 27.1 47.1725 26.54 47.1725 25.98C47.1725 25.48 47.3525 24.98 47.7525 24.96C49.0125 24.86 50.5725 24.82 52.0725 24.82C53.0525 24.82 54.0125 24.84 54.8525 24.88C55.6925 24.92 55.9525 25.36 56.0725 26.02C56.2125 26.74 56.3325 28.3 56.3125 29.56ZM64.1847 29.8C63.7247 29.82 63.4847 29.18 63.4847 28.56C63.4847 28.02 63.6847 27.48 64.0847 27.44C65.2847 27.34 66.6247 27.3 67.9447 27.3C69.0247 27.3 70.1047 27.32 71.1047 27.38C72.3447 27.46 72.3647 28.42 72.3647 29.8C72.3847 32.5 72.1447 35.66 71.4847 38.1C71.4047 38.44 70.8647 38.6 70.2647 38.6C69.3047 38.6 68.1447 38.18 68.3247 37.46C68.5447 36.66 68.7447 35.66 68.9447 34.64C68.3247 34.62 67.7047 34.62 67.0847 34.62C66.2447 34.62 65.4047 34.62 64.5647 34.64C64.1047 34.66 63.8447 33.98 63.8447 33.34C63.8447 32.8 64.0247 32.3 64.4247 32.28C65.5047 32.22 66.5847 32.2 67.6647 32.2C68.2047 32.2 68.7647 32.22 69.3047 32.22C69.3847 31.62 69.4447 31.04 69.4847 30.52C69.5247 30.06 69.5047 29.86 69.0847 29.84C68.2847 29.78 67.3847 29.76 66.4647 29.76C65.6847 29.76 64.8847 29.78 64.1847 29.8ZM74.2447 39.56C74.4647 37.76 74.5247 35.32 74.5247 32.86C74.5247 30.92 74.4847 28.96 74.4247 27.26C74.4047 26.72 75.1247 26.4 75.8247 26.4C76.4047 26.4 76.9647 26.62 77.0647 27.16C77.2647 28.4 77.4047 29.8 77.5047 31.28C78.1047 31.26 78.7247 31.28 79.3047 31.3C79.7847 31.32 80.0247 31.9 80.0247 32.52C80.0247 33.22 79.7047 33.98 79.0647 33.98C78.5647 33.98 78.1047 33.98 77.6247 34C77.6247 34.52 77.6447 35.04 77.6447 35.54C77.6447 37.06 77.5847 38.5 77.5047 39.7C77.4647 40.18 76.7647 40.38 76.0247 40.38C75.1247 40.38 74.1847 40.08 74.2447 39.56ZM81.0769 37.28C83.4969 37.5 86.1169 37.6 88.7169 37.6C90.3769 37.6 92.0369 37.56 93.5969 37.48C94.0769 37.46 94.3169 37.98 94.3169 38.52C94.3169 39.06 94.0769 39.64 93.5369 39.74C91.1969 40.16 87.8769 40.38 84.9769 40.38C83.5169 40.38 82.1769 40.32 81.1169 40.22C80.6169 40.18 80.3969 39.4 80.3969 38.66C80.3969 37.92 80.6169 37.22 81.0769 37.28ZM84.5369 31.8C84.5769 32.34 85.1169 32.56 85.5569 32.58C86.2369 32.62 86.8969 32.64 87.5169 32.64C89.1769 32.64 90.7169 32.5 92.5969 32.26C93.0169 32.22 93.2969 32.9 93.2969 33.52C93.2969 33.94 93.1569 34.32 92.8369 34.4C90.4769 34.92 88.4569 35.2 86.3769 35.2C85.2369 35.2 84.0769 35.12 82.8569 34.94C82.0169 34.82 81.5169 34.4 81.4369 33.44C81.3769 32.7 81.3569 31.98 81.3569 31.28C81.3569 29.7 81.4969 28.16 81.7369 26.52C81.8369 25.72 82.4369 25.22 83.1169 25.2C84.5569 25.14 85.9169 25.1 87.2569 25.1C88.9169 25.1 90.5369 25.16 92.2769 25.32C92.7569 25.36 92.9969 25.94 92.9969 26.5C92.9969 27.1 92.7369 27.72 92.2369 27.7C91.4169 27.68 90.6369 27.66 89.8769 27.66C88.2969 27.66 86.7969 27.72 85.2169 27.9C84.8169 27.94 84.6369 28.12 84.5969 28.6C84.5369 29.24 84.4969 29.94 84.4969 30.64C84.4969 31.04 84.5169 31.44 84.5369 31.8ZM99.4169 27.06C101.237 27.06 102.577 28.82 103.057 31.14C103.457 31.12 103.877 31.14 104.277 31.14C104.277 29.8 104.237 28.48 104.217 27.26C104.197 26.72 104.857 26.4 105.477 26.4C106.017 26.4 106.517 26.62 106.597 27.16C106.957 29.62 107.137 32.76 107.137 35.58C107.137 37 107.077 38.36 106.997 39.5C106.957 39.98 106.337 40.18 105.657 40.18C104.857 40.18 103.977 39.88 104.037 39.36C104.197 37.82 104.277 35.84 104.297 33.78C103.937 33.76 103.577 33.76 103.237 33.76C103.077 36.48 101.877 38.14 99.4169 38.14C96.8569 38.14 95.6569 36.32 95.6569 33.28C95.6569 29.86 97.1369 27.06 99.4169 27.06ZM107.757 39.56C107.957 37.72 108.017 35.22 108.017 32.7C108.017 30.82 107.977 28.92 107.937 27.26C107.917 26.72 108.577 26.4 109.217 26.4C109.757 26.4 110.277 26.62 110.377 27.16C110.737 29.62 110.917 32.84 110.917 35.72C110.917 37.18 110.857 38.56 110.777 39.7C110.737 40.18 110.097 40.38 109.397 40.38C108.577 40.38 107.697 40.08 107.757 39.56ZM99.4769 29.58C98.6169 29.58 98.2769 31.44 98.2769 33.12C98.2769 34.62 98.8569 35.42 99.4169 35.42C100.037 35.42 100.677 34.54 100.677 32.98C100.677 31.12 100.237 29.58 99.4769 29.58ZM115.399 37.9C114.819 38.62 111.759 37 112.639 36.12C114.799 33.96 116.239 31.04 116.279 27.6C116.299 27.04 117.079 26.72 117.819 26.72C118.479 26.72 119.119 26.96 119.139 27.5C119.159 27.74 119.159 27.98 119.159 28.22C119.159 29.62 118.959 30.9 118.599 32.08C120.259 33.18 121.799 34.56 122.859 35.9C123.519 36.76 122.099 38.1 121.199 38.1C120.979 38.1 120.779 38.02 120.659 37.84C119.899 36.7 118.799 35.5 117.659 34.48C117.039 35.7 116.259 36.82 115.399 37.9ZM124.439 39.56C124.639 37.84 124.719 35.54 124.719 33.18C124.079 33.16 123.419 33.14 122.779 33.14C122.499 33.14 122.199 33.14 121.919 33.16C121.319 33.18 121.039 32.42 121.039 31.74C121.039 31.16 121.239 30.6 121.659 30.58C122.199 30.54 122.819 30.52 123.519 30.52C123.899 30.52 124.279 30.52 124.699 30.54C124.679 29.4 124.659 28.28 124.619 27.26C124.599 26.72 125.319 26.4 126.019 26.4C126.599 26.4 127.159 26.62 127.259 27.16C127.659 29.62 127.839 32.8 127.839 35.68C127.839 37.14 127.799 38.54 127.699 39.7C127.659 40.18 126.959 40.38 126.219 40.38C125.319 40.38 124.379 40.08 124.439 39.56ZM131.071 25.82C131.051 25.4 131.851 25.12 132.571 25.12C133.151 25.12 133.691 25.3 133.751 25.72C134.051 27.86 134.171 30 134.171 32.14C134.171 33.48 134.131 34.82 134.031 36.16C134.011 36.58 133.291 36.76 132.531 36.76C131.671 36.76 130.751 36.52 130.791 36.12C130.991 33.7 131.131 31.22 131.131 28.7C131.131 27.74 131.111 26.8 131.071 25.82ZM130.951 38.34C130.971 37.98 131.571 37.8 132.231 37.8C133.031 37.8 133.891 38.06 133.931 38.58C133.991 39.2 134.031 39.72 134.031 40.26C134.031 40.58 134.011 40.9 133.991 41.26C133.971 41.6 133.351 41.76 132.671 41.76C131.751 41.76 130.671 41.48 130.731 40.96C130.831 40.02 130.891 39.26 130.951 38.34Z" fill="url(#paint0_linear_672_8001)"/>
</g>
<defs>
<filter id="filter0_i_672_8001" x="0.646484" y="0.299805" width="160.665" height="43.8203" filterUnits="userSpaceOnUse" color-interpolation-filters="sRGB">
<feFlood flood-opacity="0" result="BackgroundImageFix"/>
<feBlend mode="normal" in="SourceGraphic" in2="BackgroundImageFix" result="shape"/>
<feColorMatrix in="SourceAlpha" type="matrix" values="0 0 0 0 0 0 0 0 0 0 0 0 0 0 0 0 0 0 127 0" result="hardAlpha"/>
<feOffset dx="1" dy="1"/>
<feGaussianBlur stdDeviation="1"/>
<feComposite in2="hardAlpha" operator="arithmetic" k2="-1" k3="1"/>
<feColorMatrix type="matrix" values="0 0 0 0 1 0 0 0 0 1 0 0 0 0 1 0 0 0 0.25 0"/>
<feBlend mode="normal" in2="shape" result="effect1_innerShadow_672_8001"/>
</filter>
<linearGradient id="paint0_linear_672_8001" x1="80.5" y1="-3" x2="80.5" y2="45" gradientUnits="userSpaceOnUse">
<stop stop-color="#FF9999"/>
<stop offset="1" stop-color="#FF6666"/>
</linearGradient>
</defs>
</svg>
